<svg xmlns="http://www.w3.org/2000/svg" xmlns:xlink="http://www.w3.org/1999/xlink" width="109" height="36" viewBox="0 0 109 36">
    <defs>
        <path id="l21q5kf5ta" d="M14.546 26.257c1.691 0 3.09-1.36 3.09-3.068 0-1.68-1.399-3.07-3.09-3.07H8.804c-1.458 0-2.624-1.157-2.624-2.605 0-1.447 1.166-2.634 2.624-2.634h5.742c1.691 0 3.09-1.36 3.09-3.069 0-1.679-1.399-3.068-3.09-3.068H8.804C3.935 8.743 0 12.68 0 17.514c0 4.835 3.935 8.743 8.804 8.743h5.742zm14.679 0c4.868 0 8.833-3.908 8.833-8.743 0-4.834-3.965-8.771-8.833-8.771s-8.804 3.937-8.804 8.771c0 4.835 3.936 8.743 8.804 8.743zm0-6.137c-1.458 0-2.624-1.158-2.624-2.606 0-1.447 1.166-2.634 2.624-2.634 1.458 0 2.653 1.187 2.653 2.634 0 1.448-1.195 2.606-2.653 2.606zm35.26 6.137c1.72 0 3.09-1.36 3.09-3.068 0-4.835-3.936-8.743-8.804-8.743-.204 0-.38 0-.554.029-1.254-3.358-4.49-5.732-8.28-5.732-4.867 0-8.803 3.937-8.803 8.771v5.675c0 1.708 1.37 3.068 3.09 3.068 1.691 0 3.09-1.36 3.09-3.068v-5.675c0-1.447 1.166-2.634 2.624-2.634 1.457 0 2.653 1.187 2.653 2.634v5.675c0 1.708 1.37 3.068 3.09 3.068 1.69 0 3.09-1.36 3.09-3.068v-2.635c1.457 0 2.623 1.187 2.623 2.635 0 1.708 1.4 3.068 3.09 3.068zm9.256 0c1.69 0 3.09-1.36 3.09-3.068 0-1.448 1.166-2.606 2.623-2.606h2.653c1.72 0 3.09-1.39 3.09-3.069 0-1.708-1.37-3.068-3.09-3.068h-2.653c-.903 0-1.807.145-2.623.405V8.743c0-1.448 1.166-2.606 2.623-2.606 1.458 0 2.653 1.158 2.653 2.606 0 1.708 1.37 3.068 3.09 3.068 1.69 0 3.09-1.36 3.09-3.068C88.287 3.908 84.323 0 79.454 0c-4.868 0-8.803 3.908-8.803 8.743v14.446c0 1.708 1.37 3.068 3.09 3.068zM100.167 35c1.72 0 3.09-1.39 3.09-3.069v-6.137c3.353-1.245 5.743-4.458 5.743-8.222v-5.674c0-1.708-1.4-3.068-3.09-3.068-1.72 0-3.09 1.36-3.09 3.068v5.674c0 .406-.088.753-.233 1.072-.554-.695-1.429-1.158-2.42-1.158-.962 0-1.836.463-2.39 1.158-.146-.319-.233-.666-.233-1.072v-5.674c0-1.708-1.4-3.068-3.09-3.068-1.72 0-3.09 1.36-3.09 3.068v5.674c0 3.764 2.39 6.977 5.742 8.222v6.137c0 1.68 1.37 3.069 3.061 3.069z"/>
    </defs>
    <g fill="none" fill-rule="evenodd">
        <g fill-rule="nonzero">
            <g transform="translate(-328.000000, -16.000000) translate(328.000000, 16.581886)">
                <use fill="#FFF" fill-opacity="0" xlink:href="#l21q5kf5ta"/>
                <path stroke="#000" stroke-opacity="0" stroke-width="2.412" d="M105.91 7.623c1.18 0 2.256.477 3.036 1.252.777.771 1.26 1.837 1.26 3.023h0v5.674c0 2.112-.66 4.071-1.788 5.685-.998 1.428-2.361 2.585-3.955 3.337h0v5.337c0 1.175-.48 2.25-1.263 3.027-.774.769-1.843 1.248-3.033 1.248-1.176 0-2.242-.48-3.014-1.255-.775-.777-1.253-1.848-1.253-3.02h0v-5.337c-1.594-.752-2.957-1.909-3.954-3.337-1.128-1.614-1.789-3.573-1.789-5.685h0v-5.674c0-1.19.48-2.259 1.257-3.03.774-.769 1.845-1.245 3.04-1.245 1.179 0 2.256.477 3.036 1.252.777.771 1.26 1.837 1.26 3.023h0l-.001 4.628.058-.02c.357-.122.735-.198 1.125-.22l.235-.007c.487 0 .953.08 1.386.228l.06.021v-4.63c0-1.111.418-2.116 1.106-2.872l.151-.158c.774-.769 1.845-1.245 3.04-1.245zm-91.364-.086c1.175 0 2.25.48 3.03 1.255.783.777 1.267 1.849 1.267 3.02 0 1.185-.484 2.252-1.26 3.023-.78.775-1.857 1.251-3.037 1.251h0-5.742c-.392 0-.745.16-1 .416-.259.26-.418.618-.418 1.012 0 .388.155.738.41.99.256.255.613.41 1.008.41h5.742c1.175 0 2.25.48 3.03 1.255.783.777 1.267 1.85 1.267 3.02 0 1.186-.484 2.252-1.26 3.023-.78.775-1.857 1.251-3.037 1.251h0-5.742c-2.767 0-5.268-1.111-7.078-2.908-1.812-1.8-2.932-4.289-2.932-7.04 0-2.753 1.12-5.25 2.935-7.058 1.81-1.803 4.31-2.92 7.075-2.92h0zm14.679 0c2.766 0 5.274 1.118 7.092 2.923 1.82 1.808 2.947 4.304 2.947 7.054s-1.126 5.238-2.945 7.038c-1.817 1.799-4.327 2.911-7.094 2.911-2.767 0-5.268-1.111-7.077-2.908-1.813-1.8-2.933-4.289-2.933-7.04 0-2.753 1.12-5.25 2.935-7.058 1.81-1.803 4.31-2.92 7.075-2.92zm0 8.55c-.392 0-.745.158-1 .415-.258.26-.417.618-.417 1.012 0 .388.155.738.409.99.257.255.613.41 1.008.41.401 0 .767-.159 1.032-.418.255-.25.415-.597.415-.982 0-.391-.164-.746-.424-1.004-.263-.26-.625-.424-1.023-.424zm20.713-8.55c2.125 0 4.097.657 5.72 1.781 1.373.95 2.497 2.235 3.254 3.74l.089.185.114.002c2.515.085 4.792 1.088 6.503 2.682l.23.221c1.813 1.8 2.933 4.289 2.933 7.04 0 1.191-.48 2.26-1.257 3.031-.774.769-1.845 1.244-3.04 1.244-1.179 0-2.256-.476-3.036-1.25-.777-.772-1.26-1.838-1.26-3.024 0-.247-.062-.48-.172-.683l-.04-.066v.749c0 1.106-.42 2.109-1.108 2.865l-.151.158c-.78.775-1.857 1.251-3.036 1.251-1.195 0-2.266-.475-3.04-1.244-.777-.771-1.257-1.84-1.257-3.03h0v-5.675c0-.391-.163-.746-.423-1.004-.263-.26-.625-.424-1.023-.424-.392 0-.745.16-1 .416-.259.26-.418.618-.418 1.012h0v5.675c0 1.186-.483 2.252-1.26 3.023-.78.775-1.857 1.251-3.036 1.251-1.194 0-2.266-.475-3.04-1.244-.777-.771-1.256-1.84-1.256-3.03h0v-5.675c0-2.752 1.12-5.249 2.935-7.057 1.81-1.803 4.31-2.92 7.075-2.92zm29.516-8.743c2.768 0 5.277 1.112 7.095 2.911 1.819 1.8 2.944 4.288 2.944 7.038 0 1.186-.483 2.252-1.26 3.023-.78.775-1.857 1.252-3.036 1.252-1.195 0-2.266-.476-3.04-1.245-.777-.771-1.256-1.84-1.256-3.03 0-.385-.16-.73-.415-.981-.264-.26-.63-.419-1.032-.419-.394 0-.751.155-1.008.41-.254.252-.41.602-.41.99h0v4.6c.467-.068.943-.103 1.418-.103h2.653c1.195 0 2.266.475 3.04 1.244.777.771 1.256 1.84 1.256 3.03 0 1.176-.48 2.25-1.263 3.027-.774.769-1.843 1.248-3.033 1.248h0-2.653c-.394 0-.751.155-1.008.41-.254.252-.41.602-.41.99 0 1.186-.482 2.252-1.26 3.023-.78.775-1.856 1.251-3.035 1.251-1.195 0-2.266-.475-3.04-1.244-.777-.771-1.257-1.84-1.257-3.03h0V8.743c0-2.752 1.12-5.24 2.933-7.04 1.81-1.798 4.31-2.91 7.077-2.91z"/>
                <path stroke="#F9C01C" stroke-linejoin="square" d="M105.91 9.33c.712 0 1.363.287 1.834.755.466.463.756 1.102.756 1.813h0v5.674c0 1.749-.547 3.372-1.48 4.708-1.027 1.469-2.519 2.592-4.263 3.159h0v6.492c0 .706-.29 1.35-.76 1.817-.466.464-1.112.752-1.83.752-.705 0-1.344-.29-1.806-.754-.466-.467-.755-1.11-.755-1.815h0V25.44c-1.744-.567-3.236-1.69-4.262-3.159-.933-1.336-1.48-2.96-1.48-4.708h0v-5.674c0-.714.285-1.356.752-1.82.468-.464 1.116-.748 1.838-.748.712 0 1.362.287 1.833.755.466.463.757 1.102.757 1.813h0v5.674c0 .484.104.9.278 1.28.12.26.272.507.475.738.093-.23.219-.444.37-.635.464-.581 1.195-.97 2-.97.83 0 1.564.388 2.029.97.152.191.277.405.37.636.203-.232.356-.479.475-.74.174-.38.279-.795.279-1.279h0v-5.674c0-.714.286-1.356.752-1.82.468-.464 1.117-.748 1.838-.748zm-91.364-.087c.71 0 1.357.292 1.827.76.47.465.763 1.106.763 1.808 0 .712-.29 1.35-.756 1.813-.47.468-1.121.756-1.834.756h0-5.742c-.866 0-1.645.352-2.21.918-.565.568-.914 1.353-.914 2.216 0 .864.348 1.64.913 2.2.563.56 1.343.906 2.21.906h5.743c.71 0 1.357.292 1.827.76.47.465.763 1.106.763 1.809 0 .71-.29 1.35-.756 1.813-.47.467-1.121.755-1.834.755h0-5.742c-2.297 0-4.373-.921-5.875-2.413C1.428 21.854.5 19.794.5 17.514c0-2.28.93-4.35 2.433-5.848 1.502-1.496 3.577-2.423 5.87-2.423h0zm14.679 0c2.297 0 4.38.928 5.89 2.427 1.508 1.498 2.443 3.565 2.443 5.844 0 2.277-.933 4.335-2.439 5.826-1.51 1.494-3.595 2.417-5.894 2.417-2.296 0-4.373-.921-5.875-2.413-1.501-1.49-2.429-3.55-2.429-5.83 0-2.28.93-4.35 2.433-5.848 1.502-1.496 3.577-2.423 5.871-2.423zm0 5.137c-.866 0-1.645.352-2.209.918-.566.568-.915 1.353-.915 2.216 0 .864.349 1.64.913 2.2.564.56 1.344.906 2.211.906.867 0 1.656-.346 2.227-.907.572-.561.926-1.337.926-2.199 0-.861-.355-1.646-.928-2.214-.571-.568-1.36-.92-2.225-.92zm20.713-5.137c1.764 0 3.401.545 4.75 1.478 1.383.958 2.461 2.324 3.06 3.929 3.319.296 5.395 1.217 6.898 2.709 1.5 1.49 2.428 3.55 2.428 5.83 0 .714-.285 1.356-.752 1.82-.468.464-1.116.748-1.838.748-.712 0-1.362-.288-1.834-.755-.465-.463-.756-1.102-.756-1.813 0-.864-.348-1.649-.915-2.217-.67-.674-1.646-1.043-2.708-.88h0v3.097c0 .71-.29 1.35-.756 1.813-.472.467-1.122.755-1.834.755-.722 0-1.37-.284-1.838-.748-.467-.464-.752-1.106-.752-1.82h0v-5.675c0-.861-.355-1.646-.928-2.214-.571-.568-1.36-.92-2.225-.92-.866 0-1.645.352-2.209.918-.566.568-.915 1.353-.915 2.216h0v5.675c0 .71-.29 1.35-.756 1.813-.471.467-1.122.755-1.834.755-.721 0-1.37-.284-1.837-.748-.467-.464-.753-1.106-.753-1.82h0v-5.675c0-2.28.93-4.35 2.433-5.848 1.502-1.496 3.577-2.423 5.87-2.423zM79.454.5c2.3 0 4.385.923 5.895 2.418 1.505 1.49 2.438 3.548 2.438 5.825 0 .711-.29 1.35-.756 1.813-.471.468-1.122.755-1.834.755-.721 0-1.37-.284-1.838-.748-.466-.464-.752-1.106-.752-1.82 0-.862-.354-1.637-.925-2.199-.572-.56-1.36-.907-2.228-.907-.867 0-1.647.346-2.21.905-.565.561-.913 1.338-.913 2.2h0v6.828c.922-.397 2.023-.624 3.123-.624h2.653c.721 0 1.37.284 1.838.748.466.464.752 1.106.752 1.82 0 .706-.29 1.35-.76 1.817-.466.464-1.112.752-1.83.752h0-2.653c-.867 0-1.647.346-2.21.905-.565.561-.913 1.338-.913 2.2 0 .712-.29 1.35-.756 1.814-.472.467-1.122.755-1.834.755-.722 0-1.37-.284-1.838-.748-.467-.464-.752-1.106-.752-1.82h0V8.743c0-2.279.927-4.34 2.428-5.83C75.082 1.421 77.16.5 79.454.5z"/>
            </g>
        </g>
    </g>
</svg>
